<?xml version="1.0" standalone="no"?>
<!DOCTYPE svg PUBLIC "-//W3C//DTD SVG 20010904//EN"
 "http://www.w3.org/TR/2001/REC-SVG-20010904/DTD/svg10.dtd">
<svg version="1.0" xmlns="http://www.w3.org/2000/svg"
 width="700.000000pt" height="700.000000pt" viewBox="0 0 700.000000 700.000000"
 preserveAspectRatio="xMidYMid meet">
<metadata>
Created by potrace 1.11, written by Peter Selinger 2001-2013
</metadata>
<g transform="translate(0.000000,700.000000) scale(0.100000,-0.100000)"
fill="#000000" stroke="none">
<path d="M223 4658 c3 -1113 5 -1266 21 -1373 79 -561 251 -1029 533 -1451
107 -160 206 -280 354 -430 380 -385 827 -625 1334 -715 113 -21 162 -24 380
-24 216 0 267 4 377 23 336 60 632 180 921 372 490 327 875 825 1106 1432 40
105 111 338 111 363 0 24 17 26 107 10 114 -21 331 -21 445 -1 574 103 1008
562 1077 1141 14 119 14 198 -4 325 -74 553 -489 996 -1037 1111 -110 23 -337
31 -430 16 l-48 -8 0 230 0 231 -1640 0 -1640 0 0 -660 0 -660 220 0 220 0 -2
-652 -3 -653 -547 -3 -548 -2 0 655 0 655 220 0 220 0 0 660 0 660 -875 0
-876 0 4 -1252z m5628 356 c169 -32 329 -117 453 -241 180 -179 265 -402 253
-658 -7 -139 -23 -207 -78 -323 -174 -373 -571 -574 -972 -491 l-59 12 7 51
c3 28 8 408 11 844 5 643 8 794 19 798 66 26 253 30 366 8z"/>
</g>
</svg>
