<?xml version="1.0" standalone="no"?>
<!DOCTYPE svg PUBLIC "-//W3C//DTD SVG 20010904//EN"
 "http://www.w3.org/TR/2001/REC-SVG-20010904/DTD/svg10.dtd">
<svg version="1.0" xmlns="http://www.w3.org/2000/svg"
 width="700.000000pt" height="700.000000pt" viewBox="0 0 700.000000 700.000000"
 preserveAspectRatio="xMidYMid meet">
<metadata>
Created by potrace 1.11, written by Peter Selinger 2001-2013
</metadata>
<g transform="translate(0.000000,700.000000) scale(0.100000,-0.100000)"
fill="#000000" stroke="none">
<path d="M2690 6663 c-42 -17 -74 -89 -58 -134 5 -16 36 -52 67 -81 105 -96
142 -166 142 -268 0 -107 -48 -192 -165 -289 -39 -32 -86 -73 -103 -91 -69
-68 -141 -199 -158 -287 -7 -40 -7 -141 0 -188 8 -47 43 -144 59 -165 7 -8 18
-28 26 -43 18 -36 131 -150 173 -175 77 -45 167 3 167 89 0 38 -6 48 -75 118
-86 88 -95 100 -119 161 -29 73 -24 159 13 233 37 74 47 86 131 156 97 81 155
144 193 209 57 98 72 154 71 272 0 111 -2 118 -30 190 -38 98 -146 231 -227
280 -31 19 -76 25 -107 13z"/>
<path d="M3561 6657 c-14 -6 -34 -27 -44 -45 -32 -54 -18 -89 68 -174 99 -98
129 -158 129 -258 0 -57 -6 -87 -23 -124 -22 -47 -46 -73 -229 -248 -67 -64
-88 -93 -121 -160 -48 -101 -60 -157 -56 -257 5 -144 77 -286 197 -396 73 -66
120 -83 171 -61 38 15 66 60 62 97 -1 13 -3 30 -4 37 0 7 -36 48 -79 90 -99
98 -125 150 -126 252 -1 126 31 177 220 346 95 86 147 159 181 255 63 183 18
384 -121 536 -102 111 -164 141 -225 110z"/>
<path d="M4425 6650 c-36 -24 -55 -73 -43 -117 5 -18 29 -50 59 -77 106 -95
150 -176 150 -276 0 -100 -47 -188 -144 -270 -29 -24 -84 -76 -123 -114 -221
-221 -220 -549 4 -771 81 -81 108 -97 158 -99 40 -1 50 4 75 32 22 25 29 42
29 74 0 38 -6 47 -66 107 -86 85 -107 114 -131 181 -46 131 6 267 146 380 95
77 112 93 158 154 171 228 147 512 -62 721 -96 96 -149 115 -210 75z"/>
<path d="M1392 4698 c-54 -9 -101 -34 -135 -72 -54 -62 -54 -64 -51 -781 1
-363 5 -673 8 -690 3 -16 8 -50 11 -75 33 -298 172 -667 355 -944 104 -158
181 -248 355 -421 89 -88 176 -182 194 -209 43 -62 59 -124 57 -222 l-1 -79
-1000 -1 c-985 0 -1001 -1 -1045 -21 -63 -28 -96 -60 -120 -116 -39 -87 -8
-202 69 -256 65 -47 64 -46 841 -46 l735 1 84 -169 c50 -101 97 -182 117 -203
72 -72 -59 -66 1634 -67 l1525 0 48 23 c63 30 90 67 182 253 43 86 80 157 84
158 3 0 339 2 746 2 l741 2 49 26 c165 84 165 307 0 389 l-50 25 -1005 0
-1005 1 1 95 c3 156 21 186 270 434 211 210 341 381 444 583 24 45 45 83 49
83 3 1 72 3 153 4 226 5 369 40 514 127 38 23 71 44 74 47 3 4 26 24 52 45
138 111 258 327 288 516 81 516 -305 993 -822 1014 -15 1 -30 4 -34 8 -3 4 -6
76 -5 160 1 84 -1 172 -5 196 -9 62 -59 130 -118 160 l-49 26 -2098 0 c-1153
1 -2115 -2 -2137 -6z m4548 -994 c62 -9 139 -47 184 -91 100 -97 132 -279 90
-506 -6 -34 -56 -126 -82 -153 -68 -67 -166 -102 -309 -108 l-90 -4 13 63 c13
63 31 168 40 235 5 34 14 380 14 512 l0 67 48 -4 c26 -2 67 -7 92 -11z"/>
</g>
</svg>
